<svg width="971" height="49" viewBox="0 0 971 49" fill="none" xmlns="http://www.w3.org/2000/svg">
<rect width="156" height="49" rx="24.5" fill="#2C2A2E"/>
<path d="M57.3241 31.2666V16.4432H59.1482V23.2783H61.3497L66.172 16.4432H68.2687L62.9432 23.8025L68.3106 31.2666H66.1511L61.4965 24.9347H59.1482V31.2666H57.3241ZM74.4218 31.3924C73.2616 31.3924 72.2902 31.1548 71.5074 30.6795C70.7246 30.1903 70.1376 29.5194 69.7462 28.6667C69.3688 27.8141 69.1801 26.8426 69.1801 25.7524C69.1801 24.6481 69.3688 23.6767 69.7462 22.838C70.1376 21.9854 70.7246 21.3144 71.5074 20.8252C72.2902 20.336 73.2756 20.0914 74.4637 20.0914C75.6239 20.0914 76.5883 20.336 77.3571 20.8252C78.1399 21.3144 78.7199 21.9854 79.0973 22.838C79.4887 23.6767 79.6844 24.6481 79.6844 25.7524C79.6844 26.8426 79.4887 27.8141 79.0973 28.6667C78.706 29.5194 78.1189 30.1903 77.3361 30.6795C76.5674 31.1548 75.5959 31.3924 74.4218 31.3924ZM74.4218 29.8199C75.2325 29.8199 75.8894 29.6382 76.3926 29.2748C76.9098 28.9113 77.2872 28.4221 77.5248 27.8071C77.7764 27.1921 77.9022 26.5072 77.9022 25.7524C77.9022 24.9976 77.7764 24.3127 77.5248 23.6976C77.2872 23.0826 76.9098 22.5934 76.3926 22.23C75.8894 21.8665 75.2325 21.6848 74.4218 21.6848C73.625 21.6848 72.9681 21.8665 72.4509 22.23C71.9477 22.5934 71.5703 23.0826 71.3187 23.6976C71.0811 24.3127 70.9623 24.9976 70.9623 25.7524C70.9623 26.5072 71.0811 27.1921 71.3187 27.8071C71.5703 28.4221 71.9477 28.9113 72.4509 29.2748C72.9681 29.6382 73.625 29.8199 74.4218 29.8199ZM82.0689 31.2666V20.2172H83.851V25.0605H89.3862V20.2172H91.1684V31.2666H89.3862V26.633H83.851V31.2666H82.0689ZM93.9855 31.2666V20.2172H98.2627C98.7519 20.2172 99.2341 20.2521 99.7094 20.322C100.199 20.3779 100.639 20.5037 101.03 20.6994C101.436 20.8811 101.757 21.1537 101.995 21.5171C102.246 21.8805 102.372 22.3628 102.372 22.9638C102.372 23.3272 102.316 23.6627 102.204 23.9702C102.093 24.2637 101.925 24.5223 101.701 24.746C101.492 24.9696 101.219 25.1653 100.883 25.333C101.638 25.5008 102.183 25.8292 102.519 26.3185C102.854 26.8077 103.022 27.3668 103.022 27.9958C103.022 28.5549 102.917 29.0441 102.708 29.4635C102.512 29.8688 102.232 30.2043 101.869 30.4699C101.519 30.7354 101.107 30.9381 100.632 31.0779C100.171 31.2037 99.6744 31.2666 99.1433 31.2666H93.9855ZM95.8096 29.7151H98.7239C99.1572 29.7151 99.5626 29.6731 99.94 29.5893C100.317 29.5054 100.625 29.3516 100.863 29.128C101.1 28.8904 101.219 28.5549 101.219 28.1216C101.219 27.6743 101.114 27.3388 100.904 27.1152C100.709 26.8776 100.45 26.7168 100.129 26.633C99.8212 26.5351 99.4857 26.4792 99.1223 26.4652C98.7589 26.4513 98.4164 26.4443 98.0949 26.4443H95.8096V29.7151ZM95.8096 24.9347H97.3401C97.6197 24.9347 97.9412 24.9207 98.3046 24.8927C98.682 24.8648 99.0454 24.8019 99.3949 24.704C99.7583 24.5922 100.052 24.4245 100.275 24.2008C100.513 23.9772 100.632 23.6697 100.632 23.2783C100.632 22.7611 100.485 22.4047 100.192 22.209C99.912 21.9993 99.5766 21.8805 99.1852 21.8526C98.7938 21.8106 98.4304 21.7897 98.0949 21.7897H95.8096V24.9347ZM110.232 31.3924C109.058 31.3924 108.086 31.1548 107.318 30.6795C106.549 30.1903 105.976 29.5194 105.598 28.6667C105.221 27.8141 105.032 26.8426 105.032 25.7524C105.032 24.6481 105.228 23.6767 105.619 22.838C106.025 21.9854 106.612 21.3144 107.381 20.8252C108.149 20.336 109.093 20.0914 110.211 20.0914C111.036 20.0914 111.756 20.2521 112.371 20.5736C113 20.8811 113.517 21.3004 113.922 21.8316C114.341 22.3628 114.642 22.9568 114.824 23.6138C115.019 24.2707 115.103 24.9486 115.075 25.6475C115.061 25.7733 115.054 25.8991 115.054 26.0249C115.054 26.1507 115.047 26.2765 115.033 26.4023H106.835C106.891 27.0453 107.052 27.6254 107.318 28.1426C107.583 28.6597 107.961 29.0721 108.45 29.3796C108.939 29.6731 109.547 29.8199 110.274 29.8199C110.637 29.8199 111.001 29.778 111.364 29.6941C111.742 29.5963 112.077 29.4355 112.371 29.2119C112.678 28.9882 112.895 28.6877 113.021 28.3103H114.845C114.677 29.0232 114.362 29.6102 113.901 30.0715C113.44 30.5188 112.888 30.8543 112.245 31.0779C111.602 31.2876 110.931 31.3924 110.232 31.3924ZM106.877 24.8508H113.272C113.258 24.2218 113.118 23.6697 112.853 23.1944C112.587 22.7192 112.224 22.3488 111.763 22.0832C111.315 21.8176 110.777 21.6848 110.148 21.6848C109.463 21.6848 108.883 21.8316 108.408 22.1251C107.947 22.4187 107.59 22.8031 107.339 23.2783C107.087 23.7535 106.933 24.2777 106.877 24.8508ZM117.471 35.2503V20.2172H119.169L119.253 21.9155C119.63 21.3144 120.14 20.8601 120.783 20.5526C121.44 20.2451 122.146 20.0914 122.901 20.0914C124.019 20.0914 124.935 20.343 125.648 20.8462C126.36 21.3354 126.885 22.0063 127.22 22.859C127.57 23.7116 127.744 24.6761 127.744 25.7524C127.744 26.8287 127.57 27.7931 127.22 28.6458C126.871 29.4984 126.333 30.1693 125.606 30.6586C124.879 31.1478 123.949 31.3924 122.817 31.3924C122.258 31.3924 121.755 31.3365 121.307 31.2247C120.86 31.0989 120.469 30.9241 120.133 30.7005C119.798 30.4769 119.504 30.2253 119.253 29.9457V35.2503H117.471ZM122.67 29.8199C123.481 29.8199 124.124 29.6382 124.599 29.2748C125.075 28.8974 125.417 28.4012 125.627 27.7861C125.85 27.1711 125.962 26.4932 125.962 25.7524C125.962 24.9976 125.85 24.3127 125.627 23.6976C125.417 23.0826 125.068 22.5934 124.578 22.23C124.089 21.8665 123.439 21.6848 122.628 21.6848C121.902 21.6848 121.28 21.8735 120.762 22.2509C120.259 22.6144 119.875 23.1106 119.609 23.7396C119.344 24.3546 119.211 25.0325 119.211 25.7733C119.211 26.5421 119.337 27.234 119.588 27.849C119.84 28.4641 120.224 28.9463 120.741 29.2957C121.259 29.6452 121.902 29.8199 122.67 29.8199ZM132.621 31.2666V21.7897H128.826V20.2172H138.198V21.7897H134.403V31.2666H132.621Z" fill="white" fill-opacity="0.8"/>
<circle cx="24.4668" cy="24.5" r="18.5" fill="#3F3E43"/>
<path d="M30.0024 23.7236C30.2972 23.7236 30.5366 23.9621 30.5366 24.2568C30.5366 25.8136 29.9177 27.3064 28.8169 28.4072C27.7161 29.5079 26.2232 30.1269 24.6665 30.127H24.6646C23.035 30.1208 21.4699 29.4851 20.2983 28.3525L20.2925 28.3457L19.8628 27.916V29.5928C19.8627 29.8875 19.6243 30.126 19.3296 30.126C19.035 30.1258 18.7964 29.8874 18.7964 29.5928V26.6279C18.7964 26.5705 18.807 26.5157 18.8237 26.4639C18.8279 26.4509 18.8312 26.4375 18.8364 26.4248C18.8772 26.3258 18.9465 26.2411 19.0347 26.1826C19.0435 26.1767 19.0539 26.1733 19.063 26.168C19.0833 26.1562 19.1036 26.1439 19.1255 26.1348C19.1419 26.128 19.1594 26.1242 19.1763 26.1191C19.1925 26.1143 19.2083 26.1078 19.2251 26.1045C19.2595 26.0976 19.2946 26.0947 19.3296 26.0947H22.2944C22.5891 26.0948 22.8276 26.3332 22.8276 26.6279C22.8276 26.9226 22.5891 27.1611 22.2944 27.1611H20.6167L21.0405 27.585C22.0139 28.526 23.3136 29.0533 24.6675 29.0586C25.9406 29.0582 27.1617 28.5535 28.062 27.6533C28.9627 26.7526 29.4692 25.5306 29.4692 24.2568C29.4692 23.9623 29.7079 23.7239 30.0024 23.7236ZM24.6685 18.3857C26.196 18.3916 27.666 18.9512 28.8091 19.9541L29.0337 20.1611L29.0396 20.167L29.4692 20.5957V18.9199C29.4692 18.6253 29.7088 18.3859 30.0034 18.3857C30.2981 18.3858 30.5366 18.6252 30.5366 18.9199V21.8848C30.5366 21.928 30.5298 21.9695 30.52 22.0098C30.5136 22.0362 30.5061 22.0625 30.4956 22.0879C30.4685 22.1533 30.4297 22.2125 30.3804 22.2617L30.2974 22.3301C30.2833 22.3394 30.2671 22.3447 30.2524 22.3525C30.2369 22.3608 30.222 22.3702 30.2056 22.377C30.1409 22.4035 30.0723 22.4179 30.0034 22.418H27.0386C26.7442 22.4178 26.5057 22.1791 26.5054 21.8848C26.5054 21.5901 26.744 21.3507 27.0386 21.3506H28.7144L28.2915 20.9277C27.318 19.9868 26.0184 19.4583 24.6646 19.4531C23.3914 19.4536 22.1703 19.9601 21.27 20.8604C20.3695 21.761 19.8628 22.9832 19.8628 24.2568C19.8623 24.5512 19.624 24.79 19.3296 24.79C19.0353 24.7899 18.7969 24.5511 18.7964 24.2568C18.7964 22.7001 19.4145 21.2063 20.5151 20.1055C21.616 19.0047 23.1097 18.3858 24.6665 18.3857H24.6685Z" fill="white"/>
<rect x="166" width="128" height="49" rx="24.5" fill="#2C2A2E"/>
<path d="M227.791 31.2666V16.4432H229.615V23.2783H231.796L236.639 16.4432H238.735L233.41 23.8025L238.777 31.2666H236.618L231.963 24.9347H229.615V31.2666H227.791ZM239.993 31.2666V29.8199L248.212 18.0995H240.266V16.4432H250.666V17.8689L242.342 29.6102H250.519V31.2666H239.993ZM256.634 31.2666V18.0995H251.875V16.4432H263.218V18.0995H258.458V31.2666H256.634Z" fill="white" fill-opacity="0.8"/>
<circle cx="190.467" cy="24.5" r="18.5" fill="#316CAF"/>
<path d="M191.964 35H189.048V22.742H183.486V20.258H197.526V22.742H191.964V35ZM183.486 15.722H197.526V18.206H183.486V15.722Z" fill="white"/>
<rect x="304" width="206" height="49" rx="24.5" fill="#2C2A2E"/>
<path d="M361.357 31.2666V16.4432H373.015V31.2666H371.191V18.0995H363.181V31.2666H361.357ZM381.076 31.3924C379.916 31.3924 378.944 31.1548 378.161 30.6795C377.379 30.1903 376.792 29.5194 376.4 28.6667C376.023 27.8141 375.834 26.8426 375.834 25.7524C375.834 24.6481 376.023 23.6767 376.4 22.838C376.792 21.9854 377.379 21.3144 378.161 20.8252C378.944 20.336 379.93 20.0914 381.118 20.0914C382.278 20.0914 383.242 20.336 384.011 20.8252C384.794 21.3144 385.374 21.9854 385.751 22.838C386.143 23.6767 386.338 24.6481 386.338 25.7524C386.338 26.8426 386.143 27.8141 385.751 28.6667C385.36 29.5194 384.773 30.1903 383.99 30.6795C383.221 31.1548 382.25 31.3924 381.076 31.3924ZM381.076 29.8199C381.887 29.8199 382.543 29.6382 383.047 29.2748C383.564 28.9113 383.941 28.4221 384.179 27.8071C384.43 27.1921 384.556 26.5072 384.556 25.7524C384.556 24.9976 384.43 24.3127 384.179 23.6976C383.941 23.0826 383.564 22.5934 383.047 22.23C382.543 21.8665 381.887 21.6848 381.076 21.6848C380.279 21.6848 379.622 21.8665 379.105 22.23C378.602 22.5934 378.224 23.0826 377.973 23.6976C377.735 24.3127 377.616 24.9976 377.616 25.7524C377.616 26.5072 377.735 27.1921 377.973 27.8071C378.224 28.4221 378.602 28.9113 379.105 29.2748C379.622 29.6382 380.279 29.8199 381.076 29.8199ZM388.723 31.2666V20.2172H397.885V31.2666H396.103V21.7897H390.505V31.2666H388.723ZM405.523 31.3924C404.363 31.3924 403.392 31.1548 402.609 30.6795C401.826 30.1903 401.239 29.5194 400.848 28.6667C400.47 27.8141 400.282 26.8426 400.282 25.7524C400.282 24.6481 400.47 23.6767 400.848 22.838C401.239 21.9854 401.826 21.3144 402.609 20.8252C403.392 20.336 404.377 20.0914 405.565 20.0914C406.725 20.0914 407.69 20.336 408.459 20.8252C409.241 21.3144 409.821 21.9854 410.199 22.838C410.59 23.6767 410.786 24.6481 410.786 25.7524C410.786 26.8426 410.59 27.8141 410.199 28.6667C409.807 29.5194 409.22 30.1903 408.438 30.6795C407.669 31.1548 406.697 31.3924 405.523 31.3924ZM405.523 29.8199C406.334 29.8199 406.991 29.6382 407.494 29.2748C408.011 28.9113 408.389 28.4221 408.626 27.8071C408.878 27.1921 409.004 26.5072 409.004 25.7524C409.004 24.9976 408.878 24.3127 408.626 23.6976C408.389 23.0826 408.011 22.5934 407.494 22.23C406.991 21.8665 406.334 21.6848 405.523 21.6848C404.727 21.6848 404.07 21.8665 403.552 22.23C403.049 22.5934 402.672 23.0826 402.42 23.6976C402.183 24.3127 402.064 24.9976 402.064 25.7524C402.064 26.5072 402.183 27.1921 402.42 27.8071C402.672 28.4221 403.049 28.9113 403.552 29.2748C404.07 29.6382 404.727 29.8199 405.523 29.8199ZM412.062 31.2876V29.736C412.341 29.736 412.593 29.6801 412.816 29.5683C413.04 29.4425 413.236 29.2608 413.403 29.0232C413.599 28.7436 413.753 28.3383 413.865 27.8071C413.977 27.2759 414.053 26.7098 414.095 26.1088C414.151 25.4379 414.193 24.7809 414.221 24.1379C414.249 23.481 414.27 22.831 414.284 22.188C414.312 21.5451 414.326 20.8881 414.326 20.2172H422V31.2666H420.218V21.7897H416.066C416.052 22.2649 416.031 22.7471 416.003 23.2364C415.989 23.7116 415.968 24.1938 415.94 24.6831C415.926 25.1583 415.905 25.6405 415.878 26.1298C415.864 26.6889 415.808 27.3179 415.71 28.0168C415.612 28.7157 415.402 29.3516 415.081 29.9247C414.773 30.4699 414.396 30.8333 413.949 31.015C413.515 31.1967 412.886 31.2876 412.062 31.2876ZM424.8 31.2666V20.2172H426.582V25.0605H432.118V20.2172H433.9V31.2666H432.118V26.633H426.582V31.2666H424.8ZM441.497 31.3924C440.323 31.3924 439.352 31.1548 438.583 30.6795C437.814 30.1903 437.241 29.5194 436.864 28.6667C436.486 27.8141 436.298 26.8426 436.298 25.7524C436.298 24.6481 436.493 23.6767 436.885 22.838C437.29 21.9854 437.877 21.3144 438.646 20.8252C439.415 20.336 440.358 20.0914 441.476 20.0914C442.301 20.0914 443.021 20.2521 443.636 20.5736C444.265 20.8811 444.782 21.3004 445.187 21.8316C445.607 22.3628 445.907 22.9568 446.089 23.6138C446.285 24.2707 446.369 24.9486 446.341 25.6475C446.327 25.7733 446.32 25.8991 446.32 26.0249C446.32 26.1507 446.313 26.2765 446.299 26.4023H438.101C438.157 27.0453 438.317 27.6254 438.583 28.1426C438.849 28.6597 439.226 29.0721 439.715 29.3796C440.204 29.6731 440.812 29.8199 441.539 29.8199C441.903 29.8199 442.266 29.778 442.63 29.6941C443.007 29.5963 443.342 29.4355 443.636 29.2119C443.943 28.9882 444.16 28.6877 444.286 28.3103H446.11C445.942 29.0232 445.628 29.6102 445.166 30.0715C444.705 30.5188 444.153 30.8543 443.51 31.0779C442.867 31.2876 442.196 31.3924 441.497 31.3924ZM438.143 24.8508H444.537C444.523 24.2218 444.384 23.6697 444.118 23.1944C443.853 22.7192 443.489 22.3488 443.028 22.0832C442.581 21.8176 442.042 21.6848 441.413 21.6848C440.729 21.6848 440.148 21.8316 439.673 22.1251C439.212 22.4187 438.856 22.8031 438.604 23.2783C438.352 23.7535 438.199 24.2777 438.143 24.8508ZM448.736 31.2666V20.2172H450.518V25.0605H456.053V20.2172H457.835V31.2666H456.053V26.633H450.518V31.2666H448.736ZM460.652 31.2666V20.2172H462.435V28.6877C462.533 28.492 462.665 28.2823 462.833 28.0587C463.001 27.8211 463.134 27.6394 463.231 27.5136L468.578 20.2172H470.339V31.2666H468.557V22.7961C468.445 23.0057 468.319 23.2014 468.18 23.3831C468.054 23.5648 467.935 23.7326 467.823 23.8863L462.393 31.2666H460.652ZM477.923 31.3924C476.749 31.3924 475.777 31.1548 475.008 30.6795C474.24 30.1903 473.667 29.5194 473.289 28.6667C472.912 27.8141 472.723 26.8426 472.723 25.7524C472.723 24.6481 472.919 23.6767 473.31 22.838C473.715 21.9854 474.303 21.3144 475.071 20.8252C475.84 20.336 476.784 20.0914 477.902 20.0914C478.727 20.0914 479.446 20.2521 480.061 20.5736C480.69 20.8811 481.208 21.3004 481.613 21.8316C482.032 22.3628 482.333 22.9568 482.514 23.6138C482.71 24.2707 482.794 24.9486 482.766 25.6475C482.752 25.7733 482.745 25.8991 482.745 26.0249C482.745 26.1507 482.738 26.2765 482.724 26.4023H474.526C474.582 27.0453 474.743 27.6254 475.008 28.1426C475.274 28.6597 475.651 29.0721 476.141 29.3796C476.63 29.6731 477.238 29.8199 477.965 29.8199C478.328 29.8199 478.692 29.778 479.055 29.6941C479.432 29.5963 479.768 29.4355 480.061 29.2119C480.369 28.9882 480.586 28.6877 480.711 28.3103H482.535C482.368 29.0232 482.053 29.6102 481.592 30.0715C481.131 30.5188 480.579 30.8543 479.936 31.0779C479.293 31.2876 478.622 31.3924 477.923 31.3924ZM474.568 24.8508H480.963C480.949 24.2218 480.809 23.6697 480.544 23.1944C480.278 22.7192 479.915 22.3488 479.453 22.0832C479.006 21.8176 478.468 21.6848 477.839 21.6848C477.154 21.6848 476.574 21.8316 476.099 22.1251C475.637 22.4187 475.281 22.8031 475.029 23.2783C474.778 23.7535 474.624 24.2777 474.568 24.8508Z" fill="white" fill-opacity="0.8"/>
<circle cx="328.5" cy="24.5" r="18.5" fill="#8B53E8"/>
<rect width="14.2308" height="14.2308" transform="translate(321 17)" fill="#8B53E8"/>
<path d="M328.549 30.003C328.395 30.1624 328.176 30.2107 327.982 30.1549L327.982 30.1542C327.871 30.1327 327.764 30.0798 327.678 29.9905L323.994 26.1657C323.77 25.9331 323.771 25.5577 323.994 25.3253C324.221 25.09 324.592 25.0905 324.818 25.326L327.533 28.144V18.6202C327.533 18.2961 327.796 18.0332 328.12 18.0332C328.444 18.0334 328.707 18.2962 328.707 18.6202V28.144L331.42 25.3253C331.647 25.0898 332.018 25.0897 332.245 25.3253L332.318 25.4192C332.465 25.6499 332.44 25.9623 332.244 26.1657L328.549 30.003Z" fill="white" stroke="white" stroke-width="0.284615"/>
<rect x="520" width="136" height="49" rx="24.5" fill="#2C2A2E"/>
<path d="M581.824 31.2666V16.4432H587.38C588.205 16.4432 588.939 16.527 589.582 16.6948C590.239 16.8625 590.798 17.1281 591.259 17.4915C591.72 17.8549 592.07 18.3372 592.307 18.9382C592.559 19.5253 592.685 20.2381 592.685 21.0768C592.685 21.9015 592.531 22.6074 592.224 23.1944C591.916 23.7675 591.511 24.2358 591.008 24.5992C590.504 24.9626 589.959 25.2282 589.372 25.3959L592.475 31.2666H590.483L587.527 25.7104H583.648V31.2666H581.824ZM583.648 24.0541H586.793C587.338 24.0541 587.849 24.0121 588.324 23.9283C588.813 23.8444 589.239 23.6976 589.603 23.488C589.98 23.2643 590.274 22.9568 590.483 22.5654C590.693 22.1601 590.805 21.6429 590.819 21.0139C590.833 20.301 590.7 19.7349 590.42 19.3156C590.141 18.8823 589.729 18.5748 589.183 18.3931C588.638 18.1974 587.974 18.0995 587.192 18.0995H583.648V24.0541ZM601.411 31.4343C600.027 31.4343 598.902 31.1478 598.036 30.5747C597.169 30.0016 596.533 29.2258 596.128 28.2474C595.722 27.255 595.52 26.1298 595.52 24.8718V16.4432H597.344V24.8508C597.344 25.7454 597.469 26.5701 597.721 27.3249C597.987 28.0657 598.42 28.6597 599.021 29.107C599.622 29.5543 600.426 29.778 601.432 29.778C602.453 29.778 603.249 29.5543 603.822 29.107C604.409 28.6597 604.829 28.0657 605.08 27.3249C605.332 26.5701 605.458 25.7454 605.458 24.8508V16.4432H607.303V24.8718C607.303 26.1158 607.1 27.234 606.695 28.2264C606.289 29.2189 605.653 30.0016 604.787 30.5747C603.92 31.1478 602.795 31.4343 601.411 31.4343ZM610.817 31.2666V16.4432H616.016C616.757 16.4432 617.428 16.5061 618.029 16.6319C618.63 16.7437 619.147 16.9394 619.581 17.2189C620.028 17.4985 620.37 17.8759 620.608 18.3511C620.846 18.8264 620.964 19.4274 620.964 20.1543C620.964 20.9091 620.79 21.58 620.44 22.1671C620.105 22.7541 619.581 23.1874 618.868 23.467C619.818 23.6347 620.531 24.0261 621.006 24.6411C621.482 25.2422 621.719 26.0459 621.719 27.0523C621.719 27.877 621.565 28.5619 621.258 29.107C620.95 29.6522 620.524 30.0855 619.979 30.407C619.448 30.7145 618.833 30.9381 618.134 31.0779C617.435 31.2037 616.694 31.2666 615.911 31.2666H610.817ZM612.641 29.6102H615.849C616.282 29.6102 616.729 29.5893 617.19 29.5473C617.666 29.4914 618.106 29.3866 618.511 29.2328C618.917 29.0651 619.245 28.8065 619.497 28.4571C619.748 28.1076 619.874 27.6394 619.874 27.0523C619.874 26.5491 619.776 26.1368 619.581 25.8153C619.399 25.4938 619.147 25.2422 618.826 25.0605C618.518 24.8788 618.162 24.753 617.757 24.6831C617.351 24.6132 616.939 24.5782 616.52 24.5782H612.641V29.6102ZM612.641 22.9428H615.492C616.009 22.9428 616.492 22.9009 616.939 22.817C617.386 22.7192 617.778 22.5654 618.113 22.3558C618.448 22.1461 618.707 21.8735 618.889 21.5381C619.084 21.2026 619.182 20.7833 619.182 20.2801C619.196 19.6371 619.056 19.1618 618.763 18.8543C618.469 18.5468 618.078 18.3441 617.589 18.2463C617.114 18.1485 616.596 18.0995 616.037 18.0995H612.641V22.9428Z" fill="white" fill-opacity="0.8"/>
<g clip-path="url(#clip0_5527_24530)">
<path d="M544.5 43C554.717 43 563 34.7173 563 24.5C563 14.2827 554.717 6 544.5 6C534.283 6 526 14.2827 526 24.5C526 34.7173 534.283 43 544.5 43Z" fill="#015CC6"/>
<path fill-rule="evenodd" clip-rule="evenodd" d="M538.141 23.6189H540.18V14.0938H545.438C546.414 14.0938 547.304 14.2082 548.109 14.4372C548.913 14.6661 549.603 15.0153 550.177 15.4824C550.752 15.9495 551.202 16.5427 551.528 17.2584C551.853 17.9753 552.016 18.8309 552.016 19.8264C552.016 20.822 551.842 21.688 551.499 22.4245C551.174 23.135 550.692 23.7627 550.09 24.2607C549.472 24.7615 548.759 25.1323 547.994 25.351C547.145 25.5962 546.264 25.717 545.38 25.7094H542.478V28.7249H547.103V30.6963H542.478V34.9062H540.18V30.6963H538.141V28.7249H540.18V25.7094H538.141V23.6189ZM545.437 23.6189C546.758 23.6189 547.798 23.3056 548.554 22.6789C549.31 22.0511 549.689 21.1006 549.689 19.8264C549.689 18.5534 549.31 17.6273 548.554 17.0503C547.798 16.4722 546.758 16.1831 545.438 16.1831H542.478V23.6189H545.437Z" fill="white"/>
</g>
<rect x="666" width="136" height="49" rx="24.5" fill="#2C2A2E"/>
<path d="M733.611 31.4343C732.227 31.4343 731.102 31.1478 730.235 30.5747C729.369 30.0016 728.733 29.2258 728.327 28.2474C727.922 27.255 727.719 26.1298 727.719 24.8718V16.4432H729.543V24.8508C729.543 25.7454 729.669 26.5701 729.921 27.3249C730.186 28.0657 730.62 28.6597 731.221 29.107C731.822 29.5543 732.625 29.778 733.632 29.778C734.652 29.778 735.449 29.5543 736.022 29.107C736.609 28.6597 737.028 28.0657 737.28 27.3249C737.532 26.5701 737.657 25.7454 737.657 24.8508V16.4432H739.503V24.8718C739.503 26.1158 739.3 27.234 738.895 28.2264C738.489 29.2189 737.853 30.0016 736.987 30.5747C736.12 31.1478 734.995 31.4343 733.611 31.4343ZM748.384 31.4343C747.447 31.4343 746.56 31.3085 745.721 31.0569C744.896 30.7914 744.19 30.365 743.603 29.778C743.016 29.1769 742.618 28.3802 742.408 27.3878H744.316C744.512 28.0168 744.826 28.506 745.26 28.8554C745.707 29.2049 746.217 29.4495 746.79 29.5893C747.363 29.7151 747.936 29.778 748.51 29.778C749.083 29.778 749.614 29.7011 750.103 29.5473C750.606 29.3796 751.012 29.114 751.319 28.7506C751.641 28.3872 751.801 27.9189 751.801 27.3458C751.801 26.8985 751.717 26.5351 751.55 26.2556C751.396 25.976 751.172 25.7524 750.879 25.5846C750.599 25.4029 750.264 25.2562 749.872 25.1443C749.355 24.9766 748.803 24.8368 748.216 24.725C747.629 24.6132 747.049 24.4804 746.476 24.3266C745.917 24.1729 745.392 23.9772 744.903 23.7396C744.638 23.5998 744.379 23.4321 744.127 23.2364C743.89 23.0267 743.68 22.7891 743.498 22.5235C743.331 22.2439 743.191 21.9294 743.079 21.58C742.981 21.2306 742.932 20.8462 742.932 20.4268C742.932 19.7978 743.03 19.2527 743.226 18.7914C743.422 18.3302 743.687 17.9388 744.023 17.6173C744.358 17.2958 744.749 17.0372 745.197 16.8415C745.644 16.6458 746.119 16.5061 746.623 16.4222C747.14 16.3244 747.657 16.2754 748.174 16.2754C749.027 16.2754 749.823 16.4082 750.564 16.6738C751.319 16.9254 751.941 17.3377 752.43 17.9108C752.933 18.4839 753.206 19.2597 753.248 20.2381H751.466C751.396 19.6511 751.2 19.1898 750.879 18.8543C750.557 18.5189 750.159 18.2812 749.684 18.1415C749.208 18.0017 748.705 17.9318 748.174 17.9318C747.783 17.9318 747.384 17.9667 746.979 18.0366C746.588 18.1065 746.224 18.2323 745.889 18.414C745.567 18.5818 745.309 18.8194 745.113 19.1269C744.917 19.4204 744.819 19.7978 744.819 20.2591C744.819 20.6225 744.882 20.944 745.008 21.2236C745.148 21.5031 745.33 21.7407 745.553 21.9364C745.791 22.1181 746.049 22.2719 746.329 22.3977C747 22.6773 747.741 22.8869 748.551 23.0267C749.376 23.1525 750.145 23.3412 750.858 23.5928C751.277 23.7326 751.662 23.9073 752.011 24.117C752.36 24.3266 752.654 24.5712 752.892 24.8508C753.143 25.1304 753.332 25.4518 753.458 25.8153C753.597 26.1647 753.667 26.5631 753.667 27.0104C753.667 27.8211 753.528 28.513 753.248 29.0861C752.968 29.6452 752.584 30.0995 752.095 30.4489C751.606 30.7983 751.039 31.0499 750.397 31.2037C749.768 31.3575 749.097 31.4343 748.384 31.4343ZM756.715 31.2666V16.4432H761.977C763.515 16.4432 764.801 16.7577 765.835 17.3867C766.87 18.0017 767.645 18.8683 768.162 19.9865C768.694 21.0908 768.959 22.3837 768.959 23.8654C768.959 25.333 768.701 26.626 768.183 27.7442C767.666 28.8484 766.891 29.7151 765.856 30.3441C764.822 30.9591 763.529 31.2666 761.977 31.2666H756.715ZM758.539 29.6102H761.852C763.054 29.6102 764.039 29.3656 764.808 28.8764C765.577 28.3872 766.15 27.7162 766.527 26.8636C766.904 25.997 767.093 24.9976 767.093 23.8654C767.093 22.7611 766.904 21.7757 766.527 20.9091C766.164 20.0424 765.605 19.3575 764.85 18.8543C764.095 18.3511 763.13 18.0995 761.956 18.0995H758.539V29.6102Z" fill="white" fill-opacity="0.8"/>
<g clip-path="url(#clip1_5527_24530)">
<path d="M690.5 43C700.717 43 709 34.7173 709 24.5C709 14.2827 700.717 6 690.5 6C680.283 6 672 14.2827 672 24.5C672 34.7173 680.283 43 690.5 43Z" fill="#26A17B"/>
<path fill-rule="evenodd" clip-rule="evenodd" d="M698.016 28.1468C698.016 31.1184 695.604 33.0909 692.042 33.3881V36.0625H689.603V33.3615C687.194 33.0899 684.905 32.1647 682.984 30.6859L684.779 28.2278C686.378 29.4707 687.892 30.2813 689.715 30.5518V25.2562C685.621 24.2294 683.714 22.7437 683.714 19.6912C683.714 16.7739 686.097 14.7748 689.603 14.5042V12.9375H692.042V14.5586C693.949 14.7704 695.767 15.4784 697.315 16.6121L695.744 19.1512C694.51 18.2597 693.248 17.692 691.93 17.4226V22.5552C696.193 23.5819 698.016 25.2296 698.016 28.1468ZM689.714 21.9875V17.233C687.948 17.3683 687.023 18.3141 687.023 19.5027C687.023 20.6358 687.555 21.3666 689.715 21.9886L689.714 21.9875ZM694.706 28.3353C694.706 27.1212 694.117 26.3916 691.93 25.7696V30.6605C693.697 30.5241 694.706 29.6326 694.706 28.3364V28.3353Z" fill="white"/>
</g>
<rect x="812" width="159" height="49" rx="24.5" fill="#2C2A2E"/>
<path d="M868.824 31.2666V16.4432H880.482V31.2666H878.657V18.0995H870.648V31.2666H868.824ZM888.501 31.3924C887.327 31.3924 886.355 31.1548 885.586 30.6795C884.818 30.1903 884.244 29.5194 883.867 28.6667C883.49 27.8141 883.301 26.8426 883.301 25.7524C883.301 24.6481 883.497 23.6767 883.888 22.838C884.293 21.9854 884.88 21.3144 885.649 20.8252C886.418 20.336 887.361 20.0914 888.48 20.0914C889.304 20.0914 890.024 20.2521 890.639 20.5736C891.268 20.8811 891.785 21.3004 892.191 21.8316C892.61 22.3628 892.911 22.9568 893.092 23.6138C893.288 24.2707 893.372 24.9486 893.344 25.6475C893.33 25.7733 893.323 25.8991 893.323 26.0249C893.323 26.1507 893.316 26.2765 893.302 26.4023H885.104C885.16 27.0453 885.321 27.6254 885.586 28.1426C885.852 28.6597 886.229 29.0721 886.718 29.3796C887.208 29.6731 887.816 29.8199 888.543 29.8199C888.906 29.8199 889.269 29.778 889.633 29.6941C890.01 29.5963 890.346 29.4355 890.639 29.2119C890.947 28.9882 891.163 28.6877 891.289 28.3103H893.113C892.946 29.0232 892.631 29.6102 892.17 30.0715C891.709 30.5188 891.156 30.8543 890.513 31.0779C889.87 31.2876 889.2 31.3924 888.501 31.3924ZM885.146 24.8508H891.541C891.527 24.2218 891.387 23.6697 891.121 23.1944C890.856 22.7192 890.492 22.3488 890.031 22.0832C889.584 21.8176 889.046 21.6848 888.417 21.6848C887.732 21.6848 887.152 21.8316 886.677 22.1251C886.215 22.4187 885.859 22.8031 885.607 23.2783C885.356 23.7535 885.202 24.2777 885.146 24.8508ZM895.739 35.2503V20.2172H897.438L897.521 21.9155C897.899 21.3144 898.409 20.8601 899.052 20.5526C899.709 20.2451 900.415 20.0914 901.17 20.0914C902.288 20.0914 903.203 20.343 903.916 20.8462C904.629 21.3354 905.153 22.0063 905.489 22.859C905.838 23.7116 906.013 24.6761 906.013 25.7524C906.013 26.8287 905.838 27.7931 905.489 28.6458C905.139 29.4984 904.601 30.1693 903.874 30.6586C903.147 31.1478 902.218 31.3924 901.086 31.3924C900.527 31.3924 900.023 31.3365 899.576 31.2247C899.129 31.0989 898.737 30.9241 898.402 30.7005C898.067 30.4769 897.773 30.2253 897.521 29.9457V35.2503H895.739ZM900.939 29.8199C901.75 29.8199 902.393 29.6382 902.868 29.2748C903.343 28.8974 903.686 28.4012 903.895 27.7861C904.119 27.1711 904.231 26.4932 904.231 25.7524C904.231 24.9976 904.119 24.3127 903.895 23.6976C903.686 23.0826 903.336 22.5934 902.847 22.23C902.358 21.8665 901.708 21.6848 900.897 21.6848C900.17 21.6848 899.548 21.8735 899.031 22.2509C898.528 22.6144 898.143 23.1106 897.878 23.7396C897.612 24.3546 897.479 25.0325 897.479 25.7733C897.479 26.5421 897.605 27.234 897.857 27.849C898.108 28.4641 898.493 28.9463 899.01 29.2957C899.527 29.6452 900.17 29.8199 900.939 29.8199ZM913.091 31.3924C911.917 31.3924 910.946 31.1548 910.177 30.6795C909.408 30.1903 908.835 29.5194 908.458 28.6667C908.08 27.8141 907.892 26.8426 907.892 25.7524C907.892 24.6481 908.087 23.6767 908.479 22.838C908.884 21.9854 909.471 21.3144 910.24 20.8252C911.009 20.336 911.952 20.0914 913.07 20.0914C913.895 20.0914 914.615 20.2521 915.23 20.5736C915.859 20.8811 916.376 21.3004 916.782 21.8316C917.201 22.3628 917.501 22.9568 917.683 23.6138C917.879 24.2707 917.963 24.9486 917.935 25.6475C917.921 25.7733 917.914 25.8991 917.914 26.0249C917.914 26.1507 917.907 26.2765 917.893 26.4023H909.695C909.751 27.0453 909.912 27.6254 910.177 28.1426C910.443 28.6597 910.82 29.0721 911.309 29.3796C911.799 29.6731 912.407 29.8199 913.133 29.8199C913.497 29.8199 913.86 29.778 914.224 29.6941C914.601 29.5963 914.937 29.4355 915.23 29.2119C915.538 28.9882 915.754 28.6877 915.88 28.3103H917.704C917.536 29.0232 917.222 29.6102 916.761 30.0715C916.299 30.5188 915.747 30.8543 915.104 31.0779C914.461 31.2876 913.79 31.3924 913.091 31.3924ZM909.737 24.8508H916.132C916.118 24.2218 915.978 23.6697 915.712 23.1944C915.447 22.7192 915.083 22.3488 914.622 22.0832C914.175 21.8176 913.637 21.6848 913.008 21.6848C912.323 21.6848 911.743 21.8316 911.267 22.1251C910.806 22.4187 910.45 22.8031 910.198 23.2783C909.946 23.7535 909.793 24.2777 909.737 24.8508ZM920.33 31.2666V20.2172H924.607C925.096 20.2172 925.579 20.2521 926.054 20.322C926.543 20.3779 926.983 20.5037 927.375 20.6994C927.78 20.8811 928.102 21.1537 928.339 21.5171C928.591 21.8805 928.717 22.3628 928.717 22.9638C928.717 23.3272 928.661 23.6627 928.549 23.9702C928.437 24.2637 928.269 24.5223 928.046 24.746C927.836 24.9696 927.564 25.1653 927.228 25.333C927.983 25.5008 928.528 25.8292 928.863 26.3185C929.199 26.8077 929.367 27.3668 929.367 27.9958C929.367 28.5549 929.262 29.0441 929.052 29.4635C928.856 29.8688 928.577 30.2043 928.213 30.4699C927.864 30.7354 927.452 30.9381 926.976 31.0779C926.515 31.2037 926.019 31.2666 925.488 31.2666H920.33ZM922.154 29.7151H925.068C925.502 29.7151 925.907 29.6731 926.285 29.5893C926.662 29.5054 926.969 29.3516 927.207 29.128C927.445 28.8904 927.564 28.5549 927.564 28.1216C927.564 27.6743 927.459 27.3388 927.249 27.1152C927.053 26.8776 926.795 26.7168 926.473 26.633C926.166 26.5351 925.83 26.4792 925.467 26.4652C925.103 26.4513 924.761 26.4443 924.439 26.4443H922.154V29.7151ZM922.154 24.9347H923.685C923.964 24.9347 924.286 24.9207 924.649 24.8927C925.027 24.8648 925.39 24.8019 925.739 24.704C926.103 24.5922 926.396 24.4245 926.62 24.2008C926.858 23.9772 926.976 23.6697 926.976 23.2783C926.976 22.7611 926.83 22.4047 926.536 22.209C926.257 21.9993 925.921 21.8805 925.53 21.8526C925.138 21.8106 924.775 21.7897 924.439 21.7897H922.154V24.9347ZM936.619 31.3924C935.458 31.3924 934.487 31.1548 933.704 30.6795C932.921 30.1903 932.334 29.5194 931.943 28.6667C931.566 27.8141 931.377 26.8426 931.377 25.7524C931.377 24.6481 931.566 23.6767 931.943 22.838C932.334 21.9854 932.921 21.3144 933.704 20.8252C934.487 20.336 935.472 20.0914 936.66 20.0914C937.821 20.0914 938.785 20.336 939.554 20.8252C940.337 21.3144 940.917 21.9854 941.294 22.838C941.685 23.6767 941.881 24.6481 941.881 25.7524C941.881 26.8426 941.685 27.8141 941.294 28.6667C940.903 29.5194 940.316 30.1903 939.533 30.6795C938.764 31.1548 937.793 31.3924 936.619 31.3924ZM936.619 29.8199C937.429 29.8199 938.086 29.6382 938.589 29.2748C939.107 28.9113 939.484 28.4221 939.722 27.8071C939.973 27.1921 940.099 26.5072 940.099 25.7524C940.099 24.9976 939.973 24.3127 939.722 23.6976C939.484 23.0826 939.107 22.5934 938.589 22.23C938.086 21.8665 937.429 21.6848 936.619 21.6848C935.822 21.6848 935.165 21.8665 934.648 22.23C934.144 22.5934 933.767 23.0826 933.515 23.6976C933.278 24.3127 933.159 24.9976 933.159 25.7524C933.159 26.5072 933.278 27.1921 933.515 27.8071C933.767 28.4221 934.144 28.9113 934.648 29.2748C935.165 29.6382 935.822 29.8199 936.619 29.8199ZM943.076 34.6632V29.7151C943.482 29.7151 943.803 29.6032 944.041 29.3796C944.292 29.156 944.488 28.8624 944.628 28.499C944.768 28.1356 944.873 27.7442 944.942 27.3249C945.012 26.8916 945.068 26.4792 945.11 26.0878C945.18 25.4449 945.222 24.8089 945.236 24.1799C945.264 23.5369 945.278 23.0267 945.278 22.6493C945.292 22.2439 945.299 21.8386 945.299 21.4332C945.299 21.0279 945.299 20.6225 945.299 20.2172H953.14V29.7151H954.587V34.6632H952.868V31.2666H944.796V34.6632H943.076ZM945.907 29.7151H951.358V21.7897H946.997C946.983 22.3767 946.969 23.0337 946.955 23.7605C946.941 24.4874 946.913 25.1653 946.871 25.7943C946.857 26.1577 946.822 26.5701 946.767 27.0313C946.725 27.4926 946.641 27.9609 946.515 28.4361C946.389 28.8974 946.186 29.3237 945.907 29.7151Z" fill="white" fill-opacity="0.8"/>
<circle cx="836.5" cy="24.5" r="18.5" fill="#2EC08A"/>
<path d="M828.797 24.8438L834.477 30.4014C834.537 30.46 834.633 30.46 834.693 30.4015L844.693 20.6438" stroke="white" stroke-width="3.08333" stroke-linecap="round"/>
<defs>
<clipPath id="clip0_5527_24530">
<rect width="37" height="37" fill="white" transform="translate(526 6)"/>
</clipPath>
<clipPath id="clip1_5527_24530">
<rect width="37" height="37" fill="white" transform="translate(672 6)"/>
</clipPath>
</defs>
</svg>
